<svg width="281" height="585" xmlns="http://www.w3.org/2000/svg">

 <g id="imagebot_2" label="Capa 1">
  <path label="Capa 1" id="imagebot_49" d="M294.97,539.2C294.97,560.4 278.689,577.586 258.605,577.586S222.24,560.4 222.24,539.2S238.521,500.814 258.605,500.814S294.97,518 294.97,539.2z" fill="#ffe6d5" stroke-width="4" stroke="#000000" transform="translate(-7.83614 -50.9936) matrix(1 0 0 1 -212.404 -107.787)"/>
  <path label="Capa 1" id="imagebot_48" d="M298.99999,504.855C298.99999,512.6655 293.12059,518.997 285.86799,518.997S272.73599,512.6654 272.73599,504.855C272.73599,497.0445 278.61539,490.713 285.86799,490.713S298.99999,497.0446 298.99999,504.855z" fill="#ffe6d5" stroke-width="4" stroke="#000000" transform="translate(-7.83614 -50.9936) matrix(1 0 0 1 -220.216 -105.834)"/>
  <path label="Capa 1" id="imagebot_47" d="M309.11001,543.241C309.11001,551.0515 303.23061,557.383 295.97801,557.383S282.84601,551.0514 282.84601,543.241C282.84601,535.4305 288.72541,529.099 295.97801,529.099S309.11001,535.4306 309.11001,543.241z" fill="#ffe6d5" stroke-width="4" stroke="#000000" transform="translate(-7.83614 -50.9936) matrix(1 0 0 1 -220.216 -105.834)"/>
  <path label="Capa 1" id="imagebot_46" d="M294.97,539.2C294.97,560.4 278.689,577.586 258.605,577.586S222.24,560.4 222.24,539.2S238.521,500.814 258.605,500.814S294.97,518 294.97,539.2z" fill="#ffe6d5" stroke-width="4" stroke="#000000" transform="translate(-7.83614 -50.9936) matrix(1 0 0 1 -8.0285 -105.834)"/>
  <path label="Capa 1" id="imagebot_45" d="M246.48,506.875C246.48,514.6855 240.6006,521.017 233.348,521.017S220.216,514.6854 220.216,506.875C220.216,499.0645 226.0954,492.733 233.348,492.733S246.48,499.0646 246.48,506.875z" fill="#ffe6d5" stroke-width="4" stroke="#000000" transform="translate(-7.83614 -50.9936) matrix(1 0 0 1 -0.216003 -105.834)"/>
  <path label="Capa 1" id="imagebot_44" d="M233.11001,543.241C233.11001,551.0515 227.23061,557.383 219.97801,557.383S206.84601,551.0514 206.84601,543.241C206.84601,535.4305 212.72541,529.099 219.97801,529.099S233.11001,535.4306 233.11001,543.241z" fill="#ffe6d5" stroke-width="4" stroke="#000000" transform="translate(-7.83614 -50.9936) matrix(1 0 0 1 -0.216003 -105.834)"/>
  <path label="Capa 1" id="imagebot_43" d="M117.14,612.36C117.14,630.506 97.313,645.217 72.854,645.217C48.396,645.217 28.568,630.506 28.568,612.36S48.395,579.503 72.854,579.503C97.312,579.503 117.14,594.214 117.14,612.36z" transform="translate(-7.83614 -50.9936) matrix(1.3145 0.075292 0.2023 1.1915 -7.866 -158.608)" fill="#000000" stroke-width="4" stroke="#000000"/>
  <path label="Capa 1" id="imagebot_42" d="M117.14,612.36C117.14,630.506 97.313,645.217 72.854,645.217C48.396,645.217 28.568,630.506 28.568,612.36S48.395,579.503 72.854,579.503C97.312,579.503 117.14,594.214 117.14,612.36z" transform="translate(-7.83614 -50.9936) matrix(1.1589 -0.62478 0.79677 0.90876 -481.706 65.2762)" fill="#000000" stroke-width="4" stroke="#000000"/>
  <rect label="Capa 1" id="imagebot_41" ry="86.406" height="234.16" width="226.08" y="434.15" x="256.72" fill="#ffffff" stroke-width="4.1989" stroke="#000000" transform="translate(-7.83614 -50.9936) matrix(1 0 0 1 -220.216 -105.834)"/>
  <rect label="Capa 1" id="imagebot_40" ry="21.882" height="170.89" width="30" y="443.79" x="412.86" fill="#00007f" stroke-width="4.8312" stroke="#000000" transform="translate(-7.83614 -50.9936) matrix(1 0 0 1 -220.216 -105.834)"/>
  <rect label="Capa 1" id="imagebot_39" ry="21.882" height="170.89" width="30" y="443.79" x="292.86" fill="#00007f" stroke-width="4.8312" stroke="#000000" transform="translate(-7.83614 -50.9936) matrix(1 0 0 1 -220.216 -105.834)"/>
  <path label="Capa 1" id="imagebot_38" d="M 271.9478593673706 169.10261920898438 C 271.9478593673706 242.87161920898438 212.1458593673706 302.6726192089844 138.3778593673706 302.6726192089844 C 64.6088593673706 302.6726192089844 4.807859367370606 242.87061920898435 4.807859367370606 169.10261920898438 C 4.807859367370606 95.33361920898437 64.6098593673706 35.53261920898437 138.3778593673706 35.53261920898437 C 212.1468593673706 35.53261920898437 271.9478593673706 95.33461920898438 271.9478593673706 169.10261920898438 z" fill="#ffe6d5" stroke-width="4.959" stroke="#000000"/>
  <path label="Capa 1" id="imagebot_37" d="M401.29,334.74748C401.29,349.06975 386.802,360.67953 368.929,360.67953C351.057,360.67953 336.568,349.06936 336.568,334.74748S351.056,308.81543 368.929,308.81543C386.801,308.81543 401.29,320.42559 401.29,334.74748z" fill="#ffd5d5" stroke-width="4.959" stroke="#000000" transform="translate(-7.83614 -50.9936) matrix(1 0 0 1 -220.216 -105.834)"/>
  <path label="Capa 1" id="imagebot_36" d="M-97.39615,248.66212C-97.39615,272.93881 -121.22234,292.61727 -150.61245,292.61727C-180.0033,292.61727 -203.82949,272.93729 -203.82949,248.66212C-203.82949,224.38543 -180.0033,204.70697 -150.61245,204.70697S-97.39615,224.38695 -97.39615,248.66212z" fill="#ffffff" stroke-width="4.959" stroke="#000000" transform="translate(-7.83614 -50.9936) matrix(0.6438 0 0 0.6438 300.238 27.2313)"/>
  <rect label="Capa 1" id="imagebot_28" rx="5.7143" ry="44.686" height="97.771" width="227.8" y="570.85" x="255.84" fill="#00007f" stroke-width="4.1276" stroke="#000000" transform="translate(-7.83614 -50.9936) matrix(1 0 0 1 -220.216 -105.834)"/>
  <path label="Capa 1" id="imagebot_27" d="M371.14,626.65C371.14,668.079 372.5686,669.507 372.5686,669.507" fill="none" stroke-width="4" stroke="#000000" transform="translate(-7.83614 -50.9936) matrix(1 0 0 1 -220.216 -105.834)"/>
  <path label="Capa 1" id="imagebot_26" d="M358.29,628.08C379.71,626.65 384,626.65 384,626.65" fill="none" stroke-width="4" stroke="#000000" transform="translate(-7.83614 -50.9936) matrix(1 0 0 1 -220.216 -105.834)"/>
  <path label="Capa 1" id="imagebot_24" d="M 72.2689793673706 193.66076920898436 C 72.2689793673706 206.66032920898436 62.50636936737061 217.19897920898438 50.463709367370605 217.19897920898438 C 38.420929367370604 217.19897920898438 28.658449367370608 206.66082920898435 28.658449367370608 193.66076920898436 C 28.658449367370608 180.66119920898439 38.4210593673706 170.12255920898437 50.463709367370605 170.12255920898437 C 62.506489367370605 170.12255920898437 72.2689793673706 180.66070920898437 72.2689793673706 193.66076920898436 z" fill="#ffaaaa" stroke-width="0"/>
  <path label="Capa 1" id="imagebot_20" d="M-60,430.22C-60,440.871 -70.233,449.506 -82.857,449.506C-93.314,449.506 -102.437,443.5188 -105.011,434.968" transform="translate(-7.83614 -50.9936) matrix(1.1125 0.17764 -0.20081 0.9841 330.164 -126.183)" fill="#ffe6d5" stroke-width="4" stroke="#000000"/>
  <path label="Capa 1" id="imagebot_19" d="M-305.71,660.93C-305.71,673.554 -315.943,683.787 -328.567,683.787S-351.424,673.554 -351.424,660.93S-341.19,638.073 -328.567,638.073C-315.943,638.073 -305.71,648.306 -305.71,660.93z" transform="translate(1.5625 0) matrix(0.65517 0 0 0.65517 295.788 -14.6374)" fill="#000000" stroke-width="4" stroke="#000000"/>
  <path label="Capa 1" id="imagebot_17" d="M-305.71,660.93C-305.71,673.554 -315.943,683.787 -328.567,683.787S-351.424,673.554 -351.424,660.93S-341.19,638.073 -328.567,638.073C-315.943,638.073 -305.71,648.306 -305.71,660.93z" transform="translate(-7.83614 -50.9936) matrix(0.65517 0 0 0.65517 421.624 36.3562)" fill="#000000" stroke-width="4" stroke="#000000"/>
  <title label="Capa 1"/>
  <path label="Capa 1" d="M420.57848,275.95871C420.57848,282.84174 415.3476,288.42091 408.89515,288.42091C402.44257,288.42091 397.21182,282.84128 397.21182,275.95871C397.21182,269.07568 402.44268,263.49652 408.89515,263.49652C415.34774,263.49652 420.57848,269.07615 420.57848,275.95871z" fill="#000000" stroke-width="4.959" stroke="#000000" id="imagebot_14" transform="translate(-7.83614 -50.9936) matrix(1 0 0 1 -206.544 -88.2555)"/>
  <path label="Capa 1" d="M-97.39615,248.66212C-97.39615,272.93881 -121.22234,292.61727 -150.61245,292.61727C-180.0033,292.61727 -203.82949,272.93729 -203.82949,248.66212C-203.82949,224.38543 -180.0033,204.70697 -150.61245,204.70697S-97.39615,224.38695 -97.39615,248.66212z" fill="#ffffff" stroke-width="4.959" stroke="#000000" transform="translate(-7.83614 -50.9936) matrix(0.6438 0 0 0.6438 188.909 27.2313)" id="imagebot_11"/>
  <path label="Capa 1" d="M361.98473,283.77121C361.98473,290.65424 356.75385,296.23341 350.3014,296.23341C343.84882,296.23341 338.61807,290.65377 338.61807,283.77121C338.61807,276.88817 343.84893,271.30901 350.3014,271.30901C356.75399,271.30901 361.98473,276.88864 361.98473,283.77121z" fill="#000000" stroke-width="4.959" stroke="#000000" id="imagebot_7" transform="translate(-7.83614 -50.9936) matrix(1 0 0 1 -259.279 -94.1149)"/>
  <path label="Capa 1" d="M 251.9564793673706 193.66076920898436 C 251.9564793673706 206.66032920898436 242.1938693673706 217.19897920898438 230.1512093673706 217.19897920898438 C 218.1084293673706 217.19897920898438 208.3459493673706 206.66082920898435 208.3459493673706 193.66076920898436 C 208.3459493673706 180.66119920898439 218.10855936737062 170.12255920898437 230.1512093673706 170.12255920898437 C 242.19398936737062 170.12255920898437 251.9564793673706 180.66070920898437 251.9564793673706 193.66076920898436 z" fill="#ffaaaa" stroke-width="0" id="imagebot_3"/>
  <path d="M 169.5082252512368 148.45160670310676 C 146.4432564882747 148.45160670310676 126.64563198106428 138.0824348574783 116.95503834368475 123.11306745894319 C 113.08466636108571 124.98622461802326 108.81565381600463 126.12041863186721 104.25960940731375 126.12041863186721 C 90.48198305747397 126.12041863186721 79.01703558507762 116.51216875749628 75.47346343323834 103.4692910954902 C 69.42503420737329 105.54177867528645 62.39238614943989 106.7965747336071 54.88029386460422 106.7965747336071 C 32.34400086066891 106.7965747336071 14.063009537201406 96.10738642345126 14.063009537201406 82.92971082944172 C 14.063009537201406 71.03462107357593 29.055848066573056 61.255761550935816 48.5325834337758 59.446772883452354 C 47.65965838672822 58.162836056012395 46.98255323234108 56.89138012968692 46.98255323234108 55.54361080798827 C 46.98255323234108 42.926693771119886 86.85657367780435 32.63655829929061 135.99819386031243 32.63655829929061 C 185.1398059681064 32.63655829929061 225.0138829365686 42.92670077106442 225.01383448828375 55.54361080798827 C 225.01383448828375 56.39252208211151 224.40603460537838 57.15010507982356 224.0543000573479 57.97509054350964 C 226.20671200849856 57.51106421996438 228.33790361088379 57.015293147930976 230.69726241078274 57.015293147930976 C 243.84338959171006 57.01525814820829 254.53809815680412 64.75879279661416 254.53809815680412 74.29157626890117 C 254.53809815680412 83.82436674113272 243.84338959171006 91.56785238992683 230.69726241078274 91.56785238992683 C 229.08623581871842 91.56785238992683 227.71636056450853 91.08545121196448 226.194809879853 90.86400096650247 C 227.5252563049071 94.67568776672006 228.4091225896172 98.56501095182888 228.4091225896172 102.70145317902733 C 228.4091225896172 127.93526625293049 202.06062784376277 148.45159270321767 169.50824140066504 148.45159270321767 L 169.5082252512368 148.45160670310676 z" id="imagebot_50" stroke-linecap="null" stroke-linejoin="null" stroke-dasharray="null" stroke-width="3" stroke="#000000" fill="#7f0000"/>
  <path id="imagebot_51" label="Capa 1" d="M361.98473,283.77121C361.98473,290.65424 356.75385,296.23341 350.3014,296.23341C343.84882,296.23341 338.61807,290.65377 338.61807,283.77121C338.61807,276.88817 343.84893,271.30901 350.3014,271.30901C356.75399,271.30901 361.98473,276.88864 361.98473,283.77121z" fill="#000000" stroke-width="4.959" stroke="#000000" transform="translate(57.8125 242.188) matrix(1 0 0 1 -267.115 -145.108)"/>
  <path id="imagebot_52" label="Capa 1" d="M 151.11959814498903 327.7252123803711 C 151.11959814498903 334.6082423803711 145.888718144989 340.1874123803711 139.43626814498901 340.1874123803711 C 132.983688144989 340.1874123803711 127.752938144989 334.6077723803711 127.752938144989 327.7252123803711 C 127.752938144989 320.8421723803711 132.983798144989 315.2630123803711 139.43626814498901 315.2630123803711 C 145.888858144989 315.2630123803711 151.11959814498903 320.8426423803711 151.11959814498903 327.7252123803711 z" fill="#000000" stroke-width="4.959" stroke="#000000"/>
 </g>
 <metadata id="imagebot_1">image/svg+xmlOpenclipart</metadata>
</svg>